<svg width="224" height="27" viewBox="0 0 224 27" fill="none" xmlns="http://www.w3.org/2000/svg">
<path d="M32.5168 25.961C33.2321 25.961 33.985 25.7759 34.6626 25.4055L49.8332 16.8134L39.2552 12.9988L30.3335 18.0726C28.263 19.2577 27.5478 21.8501 28.7524 23.8871C29.5429 25.2574 31.011 25.9981 32.4792 25.9981L32.5168 25.961Z" fill="#FFBA00"/>
<path d="M68.8031 20.3386C67.3782 20.3386 66.0662 19.9929 64.8671 19.3017C63.668 18.6104 62.7157 17.6582 62.0103 16.4449C61.3049 15.2317 60.9523 13.8914 60.9523 12.4243C60.9523 10.9571 61.3049 9.61686 62.0103 8.40361C62.7157 7.19037 63.668 6.23811 64.8671 5.54684C66.0662 4.85557 67.3782 4.50994 68.8031 4.50994C69.9176 4.50994 70.9615 4.70744 71.935 5.10245C72.9225 5.49746 73.7337 6.05471 74.3685 6.77419L73.0777 8.06503C72.598 7.47252 71.9843 7.02108 71.2366 6.71071C70.4889 6.38624 69.6848 6.224 68.8243 6.224C67.7521 6.224 66.7505 6.48499 65.8194 7.00697C64.9024 7.51484 64.1617 8.24138 63.5974 9.18658C63.0472 10.1177 62.7721 11.1969 62.7721 12.4243C62.7721 13.6516 63.0472 14.7379 63.5974 15.6831C64.1617 16.6142 64.9094 17.3407 65.8405 17.8627C66.7716 18.3706 67.7662 18.6245 68.8243 18.6245C69.84 18.6245 70.6865 18.4693 71.3636 18.159C72.0549 17.8345 72.6474 17.4113 73.1412 16.8893C73.508 16.4943 73.8042 16.0217 74.0299 15.4715C74.2557 14.9072 74.3967 14.2865 74.4532 13.6093H68.8454V11.9375H76.1249C76.1954 12.3326 76.2307 12.6994 76.2307 13.0379C76.2307 13.969 76.0826 14.879 75.7863 15.7677C75.4901 16.6424 75.0175 17.4113 74.3685 18.0743C72.9719 19.5838 71.1167 20.3386 68.8031 20.3386ZM78.9071 4.84852H83.478C85.0298 4.84852 86.3841 5.17299 87.5409 5.82194C88.6977 6.45677 89.5865 7.34555 90.2072 8.48826C90.828 9.63097 91.1383 10.943 91.1383 12.4243C91.1383 13.9055 90.828 15.2175 90.2072 16.3603C89.5865 17.503 88.6977 18.3988 87.5409 19.0477C86.3841 19.6826 85.0298 20 83.478 20H78.9071V4.84852ZM83.478 18.2859C85.2696 18.2859 86.6874 17.771 87.7314 16.7412C88.7894 15.7113 89.3185 14.2723 89.3185 12.4243C89.3185 10.5762 88.7894 9.1372 87.7314 8.10735C86.6874 7.07751 85.2696 6.56258 83.478 6.56258H80.6847V18.2859H83.478ZM100.896 20.3386C99.4715 20.3386 98.1595 19.9929 96.9603 19.3017C95.7612 18.6104 94.8089 17.6582 94.1036 16.4449C93.3982 15.2317 93.0455 13.8914 93.0455 12.4243C93.0455 10.9571 93.3982 9.61686 94.1036 8.40361C94.8089 7.19037 95.7612 6.23811 96.9603 5.54684C98.1595 4.85557 99.4715 4.50994 100.896 4.50994C102.011 4.50994 103.055 4.70744 104.028 5.10245C105.016 5.49746 105.827 6.05471 106.462 6.77419L105.171 8.06503C104.691 7.47252 104.078 7.02108 103.33 6.71071C102.582 6.38624 101.778 6.224 100.918 6.224C99.8453 6.224 98.8437 6.48499 97.9126 7.00697C96.9956 7.51484 96.255 8.24138 95.6907 9.18658C95.1405 10.1177 94.8654 11.1969 94.8654 12.4243C94.8654 13.6516 95.1405 14.7379 95.6907 15.6831C96.255 16.6142 97.0027 17.3407 97.9338 17.8627C98.8649 18.3706 99.8594 18.6245 100.918 18.6245C101.933 18.6245 102.78 18.4693 103.457 18.159C104.148 17.8345 104.741 17.4113 105.234 16.8893C105.601 16.4943 105.897 16.0217 106.123 15.4715C106.349 14.9072 106.49 14.2865 106.546 13.6093H100.939V11.9375H108.218C108.289 12.3326 108.324 12.6994 108.324 13.0379C108.324 13.969 108.176 14.879 107.88 15.7677C107.583 16.6424 107.111 17.4113 106.462 18.0743C105.065 19.5838 103.21 20.3386 100.896 20.3386ZM122.616 20.3386C121.148 20.3386 119.815 19.9929 118.616 19.3017C117.417 18.6104 116.472 17.6652 115.78 16.4661C115.103 15.2528 114.765 13.9055 114.765 12.4243C114.765 10.943 115.103 9.60275 115.78 8.40361C116.472 7.19037 117.417 6.23811 118.616 5.54684C119.815 4.85557 121.148 4.50994 122.616 4.50994C123.744 4.50994 124.774 4.7286 125.705 5.16594C126.65 5.58916 127.469 6.19579 128.16 6.98581L126.869 8.23432C126.291 7.54305 125.656 7.03518 124.964 6.71071C124.287 6.38624 123.504 6.224 122.616 6.224C121.515 6.224 120.507 6.48499 119.59 7.00697C118.673 7.51484 117.939 8.24138 117.389 9.18658C116.853 10.1177 116.585 11.1969 116.585 12.4243C116.585 13.6516 116.853 14.7379 117.389 15.6831C117.939 16.6142 118.673 17.3407 119.59 17.8627C120.507 18.3706 121.515 18.6245 122.616 18.6245C124.45 18.6245 126.008 17.8698 127.292 16.3603L128.604 17.6299C127.899 18.4623 127.031 19.1253 126.001 19.6191C124.972 20.0988 123.843 20.3386 122.616 20.3386ZM130.624 4.84852H132.423V20H130.624V4.84852ZM139.957 20.3386C138.899 20.3386 137.947 20.0846 137.1 19.5768C136.254 19.0689 135.591 18.3776 135.111 17.503C134.646 16.6283 134.413 15.6619 134.413 14.6039C134.413 13.5458 134.646 12.5794 135.111 11.7048C135.591 10.8301 136.254 10.1388 137.1 9.63097C137.947 9.1231 138.899 8.86916 139.957 8.86916C141.015 8.86916 141.968 9.1231 142.814 9.63097C143.66 10.1388 144.316 10.8301 144.782 11.7048C145.262 12.5794 145.502 13.5458 145.502 14.6039C145.502 15.6619 145.262 16.6283 144.782 17.503C144.316 18.3776 143.66 19.0689 142.814 19.5768C141.968 20.0846 141.015 20.3386 139.957 20.3386ZM139.957 18.7092C140.62 18.7092 141.234 18.5469 141.798 18.2225C142.377 17.8839 142.835 17.4042 143.174 16.7835C143.526 16.1628 143.703 15.4362 143.703 14.6039C143.703 13.7715 143.526 13.045 143.174 12.4243C142.835 11.8035 142.377 11.3309 141.798 11.0065C141.234 10.6679 140.62 10.4986 139.957 10.4986C139.294 10.4986 138.673 10.6679 138.095 11.0065C137.517 11.3309 137.051 11.8035 136.698 12.4243C136.36 13.045 136.191 13.7715 136.191 14.6039C136.191 15.4362 136.36 16.1628 136.698 16.7835C137.051 17.4042 137.517 17.8839 138.095 18.2225C138.673 18.5469 139.294 18.7092 139.957 18.7092ZM151.402 20.3386C150.104 20.3386 149.109 19.9577 148.418 19.1959C147.741 18.4341 147.402 17.3689 147.402 16.0005V9.20774H149.201V15.7254C149.201 16.7553 149.434 17.51 149.899 17.9897C150.365 18.4693 150.993 18.7092 151.783 18.7092C152.389 18.7092 152.925 18.5469 153.391 18.2225C153.871 17.898 154.237 17.4748 154.491 16.9528C154.759 16.4308 154.893 15.8806 154.893 15.3022V9.20774H156.692V20H154.978V18.4341H154.893C154.597 18.9702 154.124 19.4216 153.476 19.7884C152.827 20.1552 152.135 20.3386 151.402 20.3386ZM163.816 20.3386C162.857 20.3386 161.982 20.0917 161.192 19.5979C160.416 19.1042 159.803 18.427 159.351 17.5665C158.9 16.6918 158.674 15.7043 158.674 14.6039C158.674 13.5176 158.9 12.5371 159.351 11.6625C159.803 10.7878 160.416 10.1036 161.192 9.60981C161.982 9.11604 162.857 8.86916 163.816 8.86916C164.649 8.86916 165.389 9.05961 166.038 9.44052C166.687 9.80731 167.181 10.2658 167.52 10.816H167.604L167.52 9.31355V4.84852H169.318V20H167.604V18.4129H167.52C167.181 18.949 166.687 19.4075 166.038 19.7884C165.389 20.1552 164.649 20.3386 163.816 20.3386ZM164.028 18.7092C164.663 18.7092 165.248 18.5399 165.784 18.2013C166.334 17.8627 166.772 17.3831 167.096 16.7623C167.435 16.1416 167.604 15.4221 167.604 14.6039C167.604 13.7856 167.435 13.0662 167.096 12.4454C166.772 11.8247 166.334 11.345 165.784 11.0065C165.248 10.6679 164.663 10.4986 164.028 10.4986C163.407 10.4986 162.822 10.6679 162.272 11.0065C161.721 11.345 161.277 11.8317 160.938 12.4666C160.614 13.0873 160.452 13.7997 160.452 14.6039C160.452 15.408 160.614 16.1275 160.938 16.7623C161.277 17.3831 161.721 17.8627 162.272 18.2013C162.822 18.5399 163.407 18.7092 164.028 18.7092ZM177.253 4.84852H182.353C183.2 4.84852 183.983 5.03897 184.702 5.41987C185.422 5.80077 185.993 6.33686 186.416 7.02813C186.854 7.70529 187.072 8.47415 187.072 9.33471C187.072 10.1953 186.854 10.9712 186.416 11.6625C185.993 12.3396 185.422 12.8686 184.702 13.2495C183.983 13.6305 183.2 13.8209 182.353 13.8209H179.031V20H177.253V4.84852ZM182.396 12.1068C182.96 12.1068 183.454 11.9728 183.877 11.7048C184.314 11.4367 184.653 11.0911 184.893 10.6679C185.132 10.2446 185.252 9.80026 185.252 9.33471C185.252 8.86916 185.132 8.42477 184.893 8.00155C184.653 7.57832 184.314 7.23269 183.877 6.96464C183.454 6.6966 182.96 6.56258 182.396 6.56258H179.031V12.1068H182.396ZM192.794 20.3386C191.496 20.3386 190.502 19.9577 189.811 19.1959C189.133 18.4341 188.795 17.3689 188.795 16.0005V9.20774H190.594V15.7254C190.594 16.7553 190.826 17.51 191.292 17.9897C191.757 18.4693 192.385 18.7092 193.175 18.7092C193.782 18.7092 194.318 18.5469 194.784 18.2225C195.263 17.898 195.63 17.4748 195.884 16.9528C196.152 16.4308 196.286 15.8806 196.286 15.3022V9.20774H198.085V20H196.371V18.4341H196.286C195.99 18.9702 195.517 19.4216 194.868 19.7884C194.219 20.1552 193.528 20.3386 192.794 20.3386ZM200.741 9.20774H202.455V10.7948H202.54C202.836 10.2588 203.309 9.80731 203.958 9.44052C204.607 9.05961 205.298 8.86916 206.032 8.86916C207.33 8.86916 208.317 9.25006 208.994 10.0119C209.686 10.7596 210.031 11.7824 210.031 13.0803V20H208.233V13.3554C208.233 12.3537 207.993 11.6272 207.513 11.1757C207.033 10.7243 206.377 10.4986 205.545 10.4986C204.967 10.4986 204.445 10.6608 203.979 10.9853C203.528 11.3098 203.175 11.74 202.921 12.2761C202.667 12.7981 202.54 13.3483 202.54 13.9267V20H200.741V9.20774ZM217.407 20.3386C216.377 20.3386 215.453 20.0917 214.635 19.5979C213.817 19.1042 213.175 18.427 212.709 17.5665C212.258 16.6918 212.032 15.7113 212.032 14.625C212.032 13.5811 212.244 12.6218 212.667 11.7471C213.104 10.8724 213.718 10.1741 214.508 9.65213C215.298 9.13015 216.215 8.86916 217.259 8.86916C218.317 8.86916 219.234 9.10899 220.01 9.58865C220.786 10.0542 221.378 10.7031 221.787 11.5355C222.211 12.3678 222.422 13.3201 222.422 14.3923C222.422 14.6039 222.401 14.7873 222.359 14.9425H213.831C213.873 15.7607 214.071 16.452 214.423 17.0163C214.776 17.5806 215.22 18.0038 215.756 18.2859C216.307 18.5681 216.878 18.7092 217.47 18.7092C218.853 18.7092 219.918 18.0602 220.666 16.7623L222.189 17.503C221.724 18.3776 221.089 19.0689 220.285 19.5768C219.495 20.0846 218.536 20.3386 217.407 20.3386ZM220.518 13.4612C220.489 13.0097 220.362 12.5583 220.137 12.1068C219.911 11.6554 219.551 11.2745 219.058 10.9641C218.578 10.6538 217.971 10.4986 217.238 10.4986C216.391 10.4986 215.672 10.7737 215.079 11.3239C214.501 11.86 214.12 12.5724 213.936 13.4612H220.518Z" fill="#6A7178"/>
<path d="M47.6875 17.2949C49.1932 17.2949 50.6237 16.508 51.4142 15.1591C52.6188 13.0982 51.9036 10.4752 49.8332 9.27617L34.6625 0.582948C32.5921 -0.616117 29.957 0.0958214 28.7524 2.15671C27.5478 4.21761 28.263 6.84056 30.3334 8.03963L45.5041 16.7703C46.1817 17.145 46.9346 17.3324 47.6498 17.3324L47.6875 17.2949Z" fill="#00A150"/>
<path d="M12.8956 12.9993L21.6668 7.97892C23.7372 6.78891 24.4524 4.18576 23.2478 2.14043C22.0432 0.0950979 19.4081 -0.611464 17.3377 0.578547L2.16699 9.20612L12.858 12.9621L12.8956 12.9993Z" fill="#FD2C25"/>
<path d="M19.5207 26.0003C21.0265 26.0003 22.4569 25.2117 23.2475 23.8598C24.4521 21.7945 23.7369 19.1659 21.6664 17.9642L6.49579 9.25217C4.42535 8.05051 1.79026 8.76402 0.585643 10.8294C-0.618972 12.8947 0.0962755 15.5234 2.16671 16.725L17.3373 25.437C18.0149 25.8126 18.7678 26.0003 19.4831 26.0003H19.5207Z" fill="#2B82FB"/>
</svg>
